<?xml version="1.0" standalone="no"?>
<!DOCTYPE svg PUBLIC "-//W3C//DTD SVG 1.1//EN" "http://www.w3.org/Graphics/SVG/1.1/DTD/svg11.dtd" >
<svg xmlns="http://www.w3.org/2000/svg" xmlns:xlink="http://www.w3.org/1999/xlink" version="1.1">
<metadata>
Created by FontForge 20170910 at Tue Mar 27 00:35:59 2018
 By Jimmy Wärting
Copyright \(c\) 2017 by Jeremy Nelson.
</metadata>
<defs>
<font id="ApexMk2-LightCondensed" horiz-adv-x="440" >
  <font-face 
    font-family="Apex Mk2 Light Condensed"
    font-weight="300"
    font-stretch="condensed"
    units-per-em="1000"
    panose-1="0 0 4 6 0 0 0 0 0 0"
    ascent="800"
    descent="-200"
    x-height="700"
    cap-height="700"
    bbox="6 -93 581 760"
    underline-thickness="50"
    underline-position="-100"
    unicode-range="U+0020-2212"
  />
<missing-glyph horiz-adv-x="100" 
 />
    <glyph glyph-name=".notdef" horiz-adv-x="100" 
 />
    <glyph glyph-name="A" unicode="A" horiz-adv-x="446" 
d="M336 0l-39 182h-148l-39 -182h-87l160 700h80l160 -700h-87zM167 266h112l-56 261z" />
    <glyph glyph-name="B" unicode="B" 
d="M328 700c35 0 62 -26 62 -57v-238c0 -29 -21 -49 -42 -52c21 -3 42 -21 42 -50v-246c0 -31 -27 -57 -62 -57h-278v700h278zM308 412v189c0 7 -7 15 -16 15h-160v-221h160c10 0 16 9 16 17zM308 294c0 8 -6 17 -16 17h-160v-227h160c9 0 16 8 16 15v195z" />
    <glyph glyph-name="C" unicode="C" horiz-adv-x="430" 
d="M328 700c35 0 62 -26 62 -57v-104h-82v62c0 7 -7 15 -16 15h-144c-9 0 -16 -8 -16 -15v-502c0 -7 7 -15 16 -15h144c9 0 16 8 16 15v62h82v-104c0 -31 -27 -57 -62 -57h-216c-35 0 -62 26 -62 57v586c0 31 27 57 62 57h216z" />
    <glyph glyph-name="D" unicode="D" 
d="M328 700c35 0 62 -26 62 -57v-586c0 -31 -27 -57 -62 -57h-278v700h278zM308 601c0 7 -7 15 -16 15h-160v-532h160c9 0 16 8 16 15v502z" />
    <glyph glyph-name="E" unicode="E" horiz-adv-x="430" 
d="M390 616h-258v-224h176v-84h-176v-224h258v-84h-340v700h340v-84z" />
    <glyph glyph-name="F" unicode="F" horiz-adv-x="413" 
d="M390 616h-258v-234h176v-84h-176v-298h-82v700h340v-84z" />
    <glyph glyph-name="G" unicode="G" 
d="M328 700c35 0 62 -26 62 -57v-99h-82v57c0 7 -7 15 -16 15h-144c-9 0 -16 -8 -16 -15v-502c0 -7 7 -15 16 -15h144c9 0 16 8 16 15v209h-88v84h170v-335c0 -31 -27 -57 -62 -57h-216c-35 0 -62 26 -62 57v586c0 31 27 57 62 57h216z" />
    <glyph glyph-name="H" unicode="H" 
d="M308 700h82v-700h-82v308h-176v-308h-82v700h82v-308h176v308z" />
    <glyph glyph-name="I" unicode="I" horiz-adv-x="182" 
d="M50 0v700h82v-700h-82z" />
    <glyph glyph-name="J" unicode="J" horiz-adv-x="413" 
d="M281 700h82v-643c0 -31 -27 -57 -62 -57h-216c-35 0 -62 26 -62 57v104h82v-62c0 -7 7 -15 16 -15h144c9 0 16 8 16 15v601z" />
    <glyph glyph-name="K" unicode="K" horiz-adv-x="446" 
d="M331 386c34 -2 59 -27 59 -57v-329h-82v287c0 7 -7 15 -16 15h-160v-302h-82v700h82v-314h117l67 314h82z" />
    <glyph glyph-name="L" unicode="L" horiz-adv-x="413" 
d="M132 84h258v-84h-340v700h82v-616z" />
    <glyph glyph-name="M" unicode="M" horiz-adv-x="590" 
d="M540 700v-700h-82v567l-123 -443h-80l-123 443v-567h-82v700h132l113 -434l113 434h132z" />
    <glyph glyph-name="N" unicode="N" horiz-adv-x="490" 
d="M358 700h82v-700h-109l-199 538v-538h-82v700h109l199 -538v538z" />
    <glyph glyph-name="O" unicode="O" 
d="M328 700c35 0 62 -26 62 -57v-586c0 -31 -27 -57 -62 -57h-216c-35 0 -62 26 -62 57v586c0 31 27 57 62 57h216zM308 601c0 7 -7 15 -16 15h-144c-9 0 -16 -8 -16 -15v-502c0 -7 7 -15 16 -15h144c9 0 16 8 16 15v502z" />
    <glyph glyph-name="P" unicode="P" horiz-adv-x="423" 
d="M328 700c35 0 62 -26 62 -57v-310c0 -31 -27 -57 -62 -57h-196v-276h-82v700h278zM308 601c0 7 -7 15 -16 15h-160v-256h160c9 0 16 8 16 15v226z" />
    <glyph glyph-name="Q" unicode="Q" horiz-adv-x="442" 
d="M392 -93h-80l-34 93h-166c-35 0 -62 26 -62 57v586c0 31 27 57 62 57h216c35 0 62 -26 62 -57v-586c0 -24 -16 -45 -40 -53zM132 99c0 -7 7 -15 16 -15h144c9 0 16 8 16 15v502c0 7 -7 15 -16 15h-144c-9 0 -16 -8 -16 -15v-502z" />
    <glyph glyph-name="R" unicode="R" 
d="M328 700c35 0 62 -26 62 -57v-254c0 -29 -21 -49 -42 -52c21 -3 42 -21 42 -50v-287h-82v278c0 8 -6 17 -16 17h-160v-295h-82v700h278zM308 396v205c0 7 -7 15 -16 15h-160v-237h160c10 0 16 9 16 17z" />
    <glyph glyph-name="S" unicode="S" 
d="M328 700c35 0 62 -26 62 -57v-104h-82v62c0 7 -7 15 -16 15h-144c-9 0 -16 -8 -16 -15v-194c0 -7 7 -15 16 -15h180c35 0 62 -26 62 -57v-278c0 -31 -27 -57 -62 -57h-216c-35 0 -62 26 -62 57v104h82v-62c0 -7 7 -15 16 -15h144c9 0 16 8 16 15v194c0 7 -7 15 -16 15
h-180c-35 0 -62 26 -62 57v278c0 31 27 57 62 57h216z" />
    <glyph glyph-name="T" unicode="T" horiz-adv-x="386" 
d="M363 700v-84h-129v-616h-82v616h-129v84h340z" />
    <glyph glyph-name="U" unicode="U" 
d="M308 700h82v-643c0 -31 -27 -57 -62 -57h-216c-35 0 -62 26 -62 57v643h82v-601c0 -7 7 -15 16 -15h144c9 0 16 8 16 15v601z" />
    <glyph glyph-name="V" unicode="V" horiz-adv-x="434" 
d="M330 700h87l-160 -700h-80l-160 700h87l113 -527z" />
    <glyph glyph-name="W" unicode="W" horiz-adv-x="614" 
d="M490 700h91l-99 -700h-101l-74 366l-74 -366h-101l-99 700h92l64 -526l76 402h85l76 -402z" />
    <glyph glyph-name="X" unicode="X" horiz-adv-x="408" 
d="M23 0l132 350l-132 350h95l86 -242l86 242h95l-132 -350l132 -350h-95l-86 242l-86 -242h-95z" />
    <glyph glyph-name="Y" unicode="Y" horiz-adv-x="422" 
d="M399 700l-147 -495v-205h-82v205l-147 495h96l92 -345l92 345h96z" />
    <glyph glyph-name="Z" unicode="Z" horiz-adv-x="406" 
d="M373 700v-84l-250 -532h250v-84h-340v84l250 532h-250v84h340z" />
    <glyph glyph-name="a" unicode="a" horiz-adv-x="446" 
d="M336 0l-39 182h-148l-39 -182h-87l160 700h80l160 -700h-87zM167 266h112l-56 261z" />
    <glyph glyph-name="b" unicode="b" 
d="M328 700c35 0 62 -26 62 -57v-238c0 -29 -21 -49 -42 -52c21 -3 42 -21 42 -50v-246c0 -31 -27 -57 -62 -57h-278v700h278zM308 412v189c0 7 -7 15 -16 15h-160v-221h160c10 0 16 9 16 17zM308 294c0 8 -6 17 -16 17h-160v-227h160c9 0 16 8 16 15v195z" />
    <glyph glyph-name="c" unicode="c" horiz-adv-x="430" 
d="M328 700c35 0 62 -26 62 -57v-104h-82v62c0 7 -7 15 -16 15h-144c-9 0 -16 -8 -16 -15v-502c0 -7 7 -15 16 -15h144c9 0 16 8 16 15v62h82v-104c0 -31 -27 -57 -62 -57h-216c-35 0 -62 26 -62 57v586c0 31 27 57 62 57h216z" />
    <glyph glyph-name="d" unicode="d" 
d="M328 700c35 0 62 -26 62 -57v-586c0 -31 -27 -57 -62 -57h-278v700h278zM308 601c0 7 -7 15 -16 15h-160v-532h160c9 0 16 8 16 15v502z" />
    <glyph glyph-name="e" unicode="e" horiz-adv-x="430" 
d="M390 616h-258v-224h176v-84h-176v-224h258v-84h-340v700h340v-84z" />
    <glyph glyph-name="f" unicode="f" horiz-adv-x="413" 
d="M390 616h-258v-234h176v-84h-176v-298h-82v700h340v-84z" />
    <glyph glyph-name="g" unicode="g" 
d="M328 700c35 0 62 -26 62 -57v-99h-82v57c0 7 -7 15 -16 15h-144c-9 0 -16 -8 -16 -15v-502c0 -7 7 -15 16 -15h144c9 0 16 8 16 15v209h-88v84h170v-335c0 -31 -27 -57 -62 -57h-216c-35 0 -62 26 -62 57v586c0 31 27 57 62 57h216z" />
    <glyph glyph-name="h" unicode="h" 
d="M308 700h82v-700h-82v308h-176v-308h-82v700h82v-308h176v308z" />
    <glyph glyph-name="i" unicode="i" horiz-adv-x="182" 
d="M50 0v700h82v-700h-82z" />
    <glyph glyph-name="j" unicode="j" horiz-adv-x="413" 
d="M281 700h82v-643c0 -31 -27 -57 -62 -57h-216c-35 0 -62 26 -62 57v104h82v-62c0 -7 7 -15 16 -15h144c9 0 16 8 16 15v601z" />
    <glyph glyph-name="k" unicode="k" horiz-adv-x="446" 
d="M331 386c34 -2 59 -27 59 -57v-329h-82v287c0 7 -7 15 -16 15h-160v-302h-82v700h82v-314h117l67 314h82z" />
    <glyph glyph-name="l" unicode="l" horiz-adv-x="413" 
d="M132 84h258v-84h-340v700h82v-616z" />
    <glyph glyph-name="m" unicode="m" horiz-adv-x="590" 
d="M540 700v-700h-82v567l-123 -443h-80l-123 443v-567h-82v700h132l113 -434l113 434h132z" />
    <glyph glyph-name="n" unicode="n" horiz-adv-x="490" 
d="M358 700h82v-700h-109l-199 538v-538h-82v700h109l199 -538v538z" />
    <glyph glyph-name="o" unicode="o" 
d="M328 700c35 0 62 -26 62 -57v-586c0 -31 -27 -57 -62 -57h-216c-35 0 -62 26 -62 57v586c0 31 27 57 62 57h216zM308 601c0 7 -7 15 -16 15h-144c-9 0 -16 -8 -16 -15v-502c0 -7 7 -15 16 -15h144c9 0 16 8 16 15v502z" />
    <glyph glyph-name="p" unicode="p" horiz-adv-x="423" 
d="M328 700c35 0 62 -26 62 -57v-310c0 -31 -27 -57 -62 -57h-196v-276h-82v700h278zM308 601c0 7 -7 15 -16 15h-160v-256h160c9 0 16 8 16 15v226z" />
    <glyph glyph-name="q" unicode="q" horiz-adv-x="442" 
d="M392 -93h-80l-34 93h-166c-35 0 -62 26 -62 57v586c0 31 27 57 62 57h216c35 0 62 -26 62 -57v-586c0 -24 -16 -45 -40 -53zM132 99c0 -7 7 -15 16 -15h144c9 0 16 8 16 15v502c0 7 -7 15 -16 15h-144c-9 0 -16 -8 -16 -15v-502z" />
    <glyph glyph-name="r" unicode="r" 
d="M328 700c35 0 62 -26 62 -57v-254c0 -29 -21 -49 -42 -52c21 -3 42 -21 42 -50v-287h-82v278c0 8 -6 17 -16 17h-160v-295h-82v700h278zM308 396v205c0 7 -7 15 -16 15h-160v-237h160c10 0 16 9 16 17z" />
    <glyph glyph-name="s" unicode="s" 
d="M328 700c35 0 62 -26 62 -57v-104h-82v62c0 7 -7 15 -16 15h-144c-9 0 -16 -8 -16 -15v-194c0 -7 7 -15 16 -15h180c35 0 62 -26 62 -57v-278c0 -31 -27 -57 -62 -57h-216c-35 0 -62 26 -62 57v104h82v-62c0 -7 7 -15 16 -15h144c9 0 16 8 16 15v194c0 7 -7 15 -16 15
h-180c-35 0 -62 26 -62 57v278c0 31 27 57 62 57h216z" />
    <glyph glyph-name="t" unicode="t" horiz-adv-x="386" 
d="M363 700v-84h-129v-616h-82v616h-129v84h340z" />
    <glyph glyph-name="u" unicode="u" 
d="M308 700h82v-643c0 -31 -27 -57 -62 -57h-216c-35 0 -62 26 -62 57v643h82v-601c0 -7 7 -15 16 -15h144c9 0 16 8 16 15v601z" />
    <glyph glyph-name="v" unicode="v" horiz-adv-x="434" 
d="M330 700h87l-160 -700h-80l-160 700h87l113 -527z" />
    <glyph glyph-name="w" unicode="w" horiz-adv-x="614" 
d="M490 700h91l-99 -700h-101l-74 366l-74 -366h-101l-99 700h92l64 -526l76 402h85l76 -402z" />
    <glyph glyph-name="x" unicode="x" horiz-adv-x="408" 
d="M23 0l132 350l-132 350h95l86 -242l86 242h95l-132 -350l132 -350h-95l-86 242l-86 -242h-95z" />
    <glyph glyph-name="y" unicode="y" horiz-adv-x="422" 
d="M399 700l-147 -495v-205h-82v205l-147 495h96l92 -345l92 345h96z" />
    <glyph glyph-name="z" unicode="z" horiz-adv-x="406" 
d="M373 700v-84l-250 -532h250v-84h-340v84l250 532h-250v84h340z" />
    <glyph glyph-name="zero" unicode="0" 
d="M328 700c35 0 62 -26 62 -57v-586c0 -31 -27 -57 -62 -57h-216c-35 0 -62 26 -62 57v586c0 31 27 57 62 57h216zM308 601c0 7 -7 15 -16 15h-144c-9 0 -16 -8 -16 -15v-502c0 -7 7 -15 16 -15h144c9 0 16 8 16 15v502z" />
    <glyph glyph-name="one" unicode="1" horiz-adv-x="182" 
d="M50 0v700h82v-700h-82z" />
    <glyph glyph-name="two" unicode="2" 
d="M328 700c35 0 62 -26 62 -57v-278c0 -31 -27 -57 -62 -57h-180c-9 0 -16 -8 -16 -15v-209h176v77h82v-161h-340v335c0 31 27 57 62 57h180c9 0 16 8 16 15v194c0 7 -7 15 -16 15h-144c-9 0 -16 -8 -16 -15v-62h-82v104c0 31 27 57 62 57h216z" />
    <glyph glyph-name="three" unicode="3" horiz-adv-x="430" 
d="M318 700c35 0 62 -26 62 -57v-238c0 -29 -21 -49 -42 -52c21 -3 42 -21 42 -50v-246c0 -31 -27 -57 -62 -57h-216c-35 0 -62 26 -62 57v104h82v-62c0 -7 7 -15 16 -15h144c9 0 16 8 16 15v195c0 8 -6 17 -16 17h-144v84h144c10 0 16 9 16 17v189c0 7 -7 15 -16 15h-144
c-9 0 -16 -8 -16 -15v-62h-82v104c0 31 27 57 62 57h216z" />
    <glyph glyph-name="four" unicode="4" horiz-adv-x="413" 
d="M281 700h82v-700h-82v276h-207c-28 0 -51 23 -51 52v32l83 340h85l-81 -340h171v340z" />
    <glyph glyph-name="five" unicode="5" 
d="M390 700v-161h-82v77h-176v-209c0 -7 7 -15 16 -15h180c35 0 62 -26 62 -57v-278c0 -31 -27 -57 -62 -57h-216c-35 0 -62 26 -62 57v104h82v-62c0 -7 7 -15 16 -15h144c9 0 16 8 16 15v194c0 7 -7 15 -16 15h-180c-35 0 -62 26 -62 57v335h340z" />
    <glyph glyph-name="six" unicode="6" 
d="M328 700c35 0 62 -26 62 -57v-104h-82v62c0 7 -7 15 -16 15h-144c-9 0 -16 -8 -16 -15v-206h196c35 0 62 -26 62 -57v-281c0 -31 -27 -57 -62 -57h-216c-35 0 -62 26 -62 57v586c0 31 27 57 62 57h216zM292 311h-160v-212c0 -7 7 -15 16 -15h144c9 0 16 8 16 15v197
c0 7 -7 15 -16 15z" />
    <glyph glyph-name="seven" unicode="7" horiz-adv-x="396" 
d="M23 700h350v-84l-165 -616h-87l165 616h-181v-77h-82v161z" />
    <glyph glyph-name="eight" unicode="8" 
d="M328 700c35 0 62 -26 62 -57v-238c0 -29 -21 -49 -42 -52c21 -3 42 -21 42 -50v-246c0 -31 -27 -57 -62 -57h-216c-35 0 -62 26 -62 57v246c0 29 21 47 42 50c-21 3 -42 23 -42 52v238c0 31 27 57 62 57h216zM308 412v189c0 7 -7 15 -16 15h-144c-9 0 -16 -8 -16 -15
v-189c0 -8 6 -17 16 -17h144c10 0 16 9 16 17zM308 294c0 8 -6 17 -16 17h-144c-10 0 -16 -9 -16 -17v-195c0 -7 7 -15 16 -15h144c9 0 16 8 16 15v195z" />
    <glyph glyph-name="nine" unicode="9" 
d="M328 700c35 0 62 -26 62 -57v-586c0 -31 -27 -57 -62 -57h-216c-35 0 -62 26 -62 57v104h82v-62c0 -7 7 -15 16 -15h144c9 0 16 8 16 15v206h-196c-35 0 -62 26 -62 57v281c0 31 27 57 62 57h216zM308 389v212c0 7 -7 15 -16 15h-144c-9 0 -16 -8 -16 -15v-197
c0 -7 7 -15 16 -15h160z" />
    <glyph glyph-name="period" unicode="." horiz-adv-x="108" 
d="M52 0c-24 0 -42 17 -42 41v10c0 24 18 41 42 41h4c24 0 42 -17 42 -41v-10c0 -24 -18 -41 -42 -41h-4z" />
    <glyph glyph-name="comma" unicode="," horiz-adv-x="139" 
d="M6 -89l35 200h85l-54 -200h-66z" />
    <glyph glyph-name="colon" unicode=":" horiz-adv-x="115" 
d="M55 392c-24 0 -42 17 -42 41v10c0 24 18 41 42 41h4c24 0 42 -17 42 -41v-10c0 -24 -18 -41 -42 -41h-4zM56 44c-24 0 -42 17 -42 41v10c0 24 18 41 42 41h4c24 0 42 -17 42 -41v-10c0 -24 -18 -41 -42 -41h-4z" />
    <glyph glyph-name="semicolon" unicode=";" horiz-adv-x="141" 
d="M82 392c-24 0 -42 17 -42 41v10c0 24 18 41 42 41h4c24 0 42 -17 42 -41v-10c0 -24 -18 -41 -42 -41h-4zM6 -89l35 200h85l-54 -200h-66z" />
    <glyph glyph-name="exclam" unicode="!" horiz-adv-x="146" 
d="M35 175l-4 525h82l-4 -525h-74zM71 0c-24 0 -42 17 -42 41v10c0 24 18 41 42 41h4c24 0 42 -17 42 -41v-10c0 -24 -18 -41 -42 -41h-4z" />
    <glyph glyph-name="question" unicode="?" horiz-adv-x="392" 
d="M304 700c35 0 62 -26 62 -57v-278c0 -31 -27 -57 -62 -57h-62c-10 0 -16 -9 -16 -17v-116h-78v165c0 29 23 52 51 52h69c9 0 16 8 16 15v194c0 7 -7 15 -16 15h-144c-9 0 -16 -8 -16 -15v-62h-82v104c0 31 27 57 62 57h216zM189 91c24 0 42 -17 42 -41v-10
c0 -24 -18 -41 -42 -41h-4c-24 0 -42 17 -42 41v10c0 24 18 41 42 41h4z" />
    <glyph glyph-name="bullet" unicode="&#x2022;" horiz-adv-x="188" 
d="M92 284c-24 0 -42 17 -42 41v10c0 24 18 41 42 41h4c24 0 42 -17 42 -41v-10c0 -24 -18 -41 -42 -41h-4z" />
    <glyph glyph-name="asterisk" unicode="*" horiz-adv-x="325" 
d="M56 330l54 150h-98v70h98l-53 150h67l38 -119l37 119h68l-53 -150h98v-70h-98l54 -150h-69l-37 119l-38 -119h-68z" />
    <glyph glyph-name="numbersign" unicode="#" horiz-adv-x="502" 
d="M470 389h-84l-33 -149h85l-19 -81h-84l-30 -135h-75l30 135h-92l-30 -135h-75l30 135h-81l19 81h80l34 149h-81l19 81h80l30 133h74l-30 -133h93l30 133h74l-30 -133h85zM278 240l34 149h-93l-33 -149h92z" />
    <glyph glyph-name="slash" unicode="/" horiz-adv-x="262" 
d="M12 0l155 700h82l-155 -700h-82z" />
    <glyph glyph-name="backslash" unicode="\" horiz-adv-x="262" 
d="M250 0h-82l-155 700h82z" />
    <glyph glyph-name="parenleft" unicode="(" horiz-adv-x="124" 
d="M95 99c0 -7 7 -15 16 -15v-84h-36c-35 0 -62 26 -62 57v586c0 31 27 57 62 57h36v-84c-9 0 -16 -8 -16 -15v-502z" />
    <glyph glyph-name="parenright" unicode=")" horiz-adv-x="124" 
d="M49 700c35 0 62 -26 62 -57v-586c0 -31 -27 -57 -62 -57h-36v84c9 0 16 8 16 15v502c0 7 -7 15 -16 15v84h36z" />
    <glyph glyph-name="braceleft" unicode="{" horiz-adv-x="162" 
d="M133 402c0 -29 -21 -49 -42 -52c21 -3 42 -21 42 -50v-201c0 -7 7 -15 16 -15v-84h-36c-35 0 -62 26 -62 57v234c0 8 -6 17 -16 17h-22v84h22c10 0 16 9 16 17v234c0 31 27 57 62 57h36v-84c-9 0 -16 -8 -16 -15v-199z" />
    <glyph glyph-name="braceright" unicode="}" horiz-adv-x="162" 
d="M127 392h22v-84h-22c-10 0 -16 -9 -16 -17v-234c0 -31 -27 -57 -62 -57h-36v84c9 0 16 8 16 15v201c0 29 21 47 42 50c-21 3 -42 23 -42 52v199c0 7 -7 15 -16 15v84h36c35 0 62 -26 62 -57v-234c0 -8 6 -17 16 -17z" />
    <glyph glyph-name="bracketleft" unicode="[" horiz-adv-x="182" 
d="M95 99c0 -7 7 -15 16 -15h58v-84h-94c-35 0 -62 26 -62 57v586c0 31 27 57 62 57h94v-84h-58c-9 0 -16 -8 -16 -15v-502z" />
    <glyph glyph-name="bracketright" unicode="]" horiz-adv-x="182" 
d="M107 700c35 0 62 -26 62 -57v-586c0 -31 -27 -57 -62 -57h-94v84h58c9 0 16 8 16 15v502c0 7 -7 15 -16 15h-58v84h94z" />
    <glyph glyph-name="hyphen" unicode="-" horiz-adv-x="202" 
d="M13 308v84h176v-84h-176z" />
    <glyph glyph-name="underscore" unicode="_" horiz-adv-x="306" 
d="M12 0v84h281v-84h-281z" />
    <glyph glyph-name="quotedblleft" unicode="&#x201c;" horiz-adv-x="297" 
d="M133 700l-35 -200h-85l54 200h66zM285 700l-35 -200h-85l54 200h66z" />
    <glyph glyph-name="quotedblright" unicode="&#x201d;" horiz-adv-x="306" 
d="M17 500l35 200h85l-54 -200h-66zM169 500l35 200h85l-54 -200h-66z" />
    <glyph glyph-name="quoteleft" unicode="&#x2018;" horiz-adv-x="145" 
d="M133 700l-35 -200h-85l54 200h66z" />
    <glyph glyph-name="quoteright" unicode="&#x2019;" horiz-adv-x="154" 
d="M17 500l35 200h85l-54 -200h-66z" />
    <glyph glyph-name="space" unicode=" " horiz-adv-x="220" 
 />
    <glyph glyph-name="dollar" unicode="$" 
d="M328 700c35 0 62 -26 62 -57v-104h-82v62c0 7 -7 15 -16 15h-144c-9 0 -16 -8 -16 -15v-194c0 -7 7 -15 16 -15h180c35 0 62 -26 62 -57v-278c0 -31 -27 -57 -62 -57h-64v-60h-82v60h-70c-35 0 -62 26 -62 57v104h82v-62c0 -7 7 -15 16 -15h144c9 0 16 8 16 15v194
c0 7 -7 15 -16 15h-180c-35 0 -62 26 -62 57v278c0 31 27 57 62 57h70v60h82v-60h64z" />
    <glyph glyph-name="plus" unicode="+" horiz-adv-x="410" 
d="M387 392v-84h-140v-140h-84v140h-140v84h140v140h84v-140h140z" />
    <glyph glyph-name="minus" unicode="&#x2212;" horiz-adv-x="320" 
d="M23 308v84h274v-84h-274z" />
    <glyph glyph-name="multiply" unicode="&#xd7;" horiz-adv-x="528" 
d="M381 491l-99 -99l99 -99l-60 -60l-99 99l-99 -99l-59 60l99 99l-99 99l59 59l99 -99l99 99z" />
    <glyph glyph-name="divide" unicode="&#xf7;" horiz-adv-x="410" 
d="M203 472c-24 0 -42 17 -42 41v10c0 24 18 41 42 41h4c24 0 42 -17 42 -41v-10c0 -24 -18 -41 -42 -41h-4zM23 308v84h364v-84h-364zM203 136c-24 0 -42 17 -42 41v10c0 24 18 41 42 41h4c24 0 42 -17 42 -41v-10c0 -24 -18 -41 -42 -41h-4z" />
    <glyph glyph-name="equal" unicode="=" horiz-adv-x="320" 
d="M23 396v84h274v-84h-274zM23 200v84h274v-84h-274z" />
    <glyph glyph-name="greater" unicode="&#x3e;" horiz-adv-x="246" 
d="M23 92v102l136 136l-136 136v102l200 -195v-85z" />
    <glyph glyph-name="less" unicode="&#x3c;" horiz-adv-x="246" 
d="M223 92l-200 196v85l200 195v-102l-136 -136l136 -136v-102z" />
    <glyph glyph-name="percent" unicode="%" horiz-adv-x="542" 
d="M358 700h75l-256 -700h-74zM85 463c-25 0 -45 19 -45 45v108c0 25 20 45 45 45h100c24 0 44 -20 44 -45v-108c0 -26 -20 -45 -44 -45h-100zM104 544c0 -8 6 -15 15 -15h32c9 0 15 7 15 15v36c0 7 -6 15 -15 15h-32c-9 0 -15 -8 -15 -15v-36zM458 238c24 0 44 -20 44 -45
v-108c0 -26 -20 -45 -44 -45h-100c-25 0 -45 19 -45 45v108c0 25 20 45 45 45h100zM439 121v36c0 7 -6 15 -15 15h-32c-9 0 -15 -8 -15 -15v-36c0 -8 6 -15 15 -15h32c9 0 15 7 15 15z" />
    <glyph glyph-name="at" unicode="@" horiz-adv-x="481" 
d="M196 105c-24 0 -42 18 -42 42v31l-1 174v31c0 24 18 42 42 42h132l1 -246c0 -7 5 -12 13 -12h16c9 0 15 6 15 17l-1 262c0 15 -9 24 -25 24h-212c-16 0 -25 -9 -25 -24v-360c0 -15 9 -24 25 -24h296v-62h-315c-40 0 -65 24 -65 62v408c0 38 25 62 65 62h250
c40 0 65 -24 65 -62v-24l1 -262v-18c0 -37 -24 -61 -63 -61h-27c-22 0 -38 10 -43 32c-5 -21 -22 -31 -43 -32h-59zM212 352l1 -174c0 -6 4 -11 11 -11h31c7 0 14 5 14 12l-1 184h-45c-7 0 -11 -5 -11 -11z" />
    <glyph glyph-name="ampersand" unicode="&#x26;" horiz-adv-x="454" 
d="M431 395v-84h-41v-254c0 -31 -27 -57 -62 -57h-216c-35 0 -62 26 -62 57v246c0 29 21 47 42 50c-21 3 -42 23 -42 52v238c0 31 27 57 62 57h216c35 0 62 -26 62 -57v-104h-82v62c0 7 -7 15 -16 15h-144c-9 0 -16 -8 -16 -15v-189c0 -8 6 -17 16 -17h283zM308 311h-160
c-10 0 -16 -9 -16 -17v-195c0 -7 7 -15 16 -15h144c9 0 16 8 16 15v212z" />
    </font>
</defs>
</svg>
